<svg width="138" height="36" viewBox="0 0 138 36" fill="none" xmlns="http://www.w3.org/2000/svg">
    <path
        d="M28.6047 7.395C30.068 8.85371 31.2122 10.6007 31.9647 12.525L26.4897 18L12.5247 4.035C15.2413 2.97045 18.2094 2.72131 21.0655 3.3181C23.9216 3.91489 26.5416 5.33171 28.6047 7.395ZM4.03467 23.475C4.75336 25.3161 5.82879 26.9969 7.19916 28.4211C8.56953 29.8452 10.2078 30.9844 12.0199 31.7734C13.832 32.5623 15.7821 32.9854 17.7582 33.0183C19.7342 33.0512 21.6974 32.6932 23.5347 31.965L9.50967 18L4.03467 23.475Z"
        fill="#3276FF" />
    <path opacity="0.3"
        d="M12.5248 4.03461L17.9998 9.50961L4.03485 23.4746C3.30663 21.6373 2.94868 19.6742 2.98157 17.6981C3.01445 15.722 3.43753 13.7719 4.22647 11.9598C5.01542 10.1478 6.15468 8.50947 7.57879 7.1391C9.0029 5.76873 10.6838 4.6933 12.5248 3.97461V4.03461ZM17.9998 26.5346L23.4748 32.0096C25.3159 31.2909 26.9968 30.2155 28.4209 28.8451C29.845 27.4747 30.9843 25.8365 31.7732 24.0244C32.5622 22.2123 32.9852 20.2622 33.0181 18.2861C33.051 16.31 32.6931 14.3469 31.9648 12.5096L17.9998 26.5346Z"
        fill="#3276FF" />
    <path
        d="M46.4219 24.7503V12.0243H55.4039V14.0763H48.6719V17.4243H54.5219V19.4403H48.6719V22.6983H55.4039V24.7503H46.4219Z"
        fill="#232E40" />
    <path
        d="M57.5488 24.7503V12.0243H60.6268L64.1548 18.4503L67.6468 12.0243H70.6348V24.7503H68.3848V14.8683L64.5868 21.7443H63.6328L59.7988 14.8683V24.7503H57.5488Z"
        fill="#232E40" />
    <path
        d="M83.8516 24.7503V12.0243H86.1016V17.4603H92.0416V12.0243H94.2736V24.7503H92.0416V19.5123H86.1016V24.7503H83.8516Z"
        fill="#232E40" />
    <path
        d="M97.123 24.7503V12.0243H100.201L103.729 18.4503L107.221 12.0243H110.209V24.7503H107.959V14.8683L104.161 21.7443H103.207L99.373 14.8683V24.7503H97.123Z"
        fill="#232E40" />
    <path
        d="M118.521 24.8943C117.213 24.8943 116.097 24.6183 115.173 24.0663C114.261 23.5143 113.559 22.7463 113.067 21.7623C112.587 20.7783 112.347 19.6563 112.347 18.3963C112.347 17.1123 112.593 15.9843 113.085 15.0123C113.577 14.0283 114.285 13.2603 115.209 12.7083C116.133 12.1443 117.249 11.8623 118.557 11.8623C119.865 11.8623 120.975 12.1383 121.887 12.6903C122.811 13.2423 123.519 14.0103 124.011 14.9943C124.503 15.9663 124.749 17.0883 124.749 18.3603C124.749 19.6203 124.503 20.7423 124.011 21.7263C123.531 22.7103 122.823 23.4843 121.887 24.0483C120.963 24.6123 119.841 24.8943 118.521 24.8943ZM118.557 22.8063C119.469 22.8063 120.213 22.5963 120.789 22.1763C121.365 21.7563 121.785 21.2103 122.049 20.5383C122.325 19.8663 122.463 19.1523 122.463 18.3963C122.463 17.8203 122.385 17.2683 122.229 16.7403C122.085 16.2123 121.851 15.7383 121.527 15.3183C121.215 14.8983 120.813 14.5683 120.321 14.3283C119.829 14.0763 119.241 13.9503 118.557 13.9503C117.657 13.9503 116.913 14.1603 116.325 14.5803C115.749 15.0003 115.323 15.5463 115.047 16.2183C114.771 16.8903 114.633 17.6163 114.633 18.3963C114.633 19.1643 114.771 19.8843 115.047 20.5563C115.323 21.2283 115.749 21.7743 116.325 22.1943C116.913 22.6023 117.657 22.8063 118.557 22.8063Z"
        fill="#232E40" />
    <path
        d="M126.883 24.7503V12.0243H129.295L135.433 21.2943V12.0243H137.683V24.7503H135.325L129.133 15.5343V24.7503H126.883Z"
        fill="#232E40" />
    <path
        d="M81.7066 24.7503V12.0243H72.7246V14.0763H79.4566V17.4243H73.6066V19.4403H79.4566V22.6983H72.7246V24.7503H81.7066Z"
        fill="#232E40" />
</svg>