<svg width="36" height="36" viewBox="0 0 36 36" fill="none" xmlns="http://www.w3.org/2000/svg">
<path d="M28.6047 7.395C30.068 8.85371 31.2122 10.6007 31.9647 12.525L26.4897 18L12.5247 4.035C15.2413 2.97045 18.2094 2.72131 21.0655 3.3181C23.9216 3.91489 26.5416 5.33171 28.6047 7.395ZM4.03467 23.475C4.75336 25.3161 5.82879 26.9969 7.19916 28.4211C8.56953 29.8452 10.2078 30.9844 12.0199 31.7734C13.832 32.5623 15.7821 32.9854 17.7582 33.0183C19.7342 33.0512 21.6974 32.6932 23.5347 31.965L9.50967 18L4.03467 23.475Z" fill="#3276FF"/>
<path opacity="0.3" d="M12.5248 4.03461L17.9998 9.50961L4.03485 23.4746C3.30663 21.6373 2.94868 19.6742 2.98157 17.6981C3.01445 15.722 3.43753 13.7719 4.22647 11.9598C5.01542 10.1478 6.15468 8.50947 7.57879 7.1391C9.0029 5.76873 10.6838 4.6933 12.5248 3.97461V4.03461ZM17.9998 26.5346L23.4748 32.0096C25.3159 31.2909 26.9968 30.2155 28.4209 28.8451C29.845 27.4747 30.9843 25.8365 31.7732 24.0244C32.5622 22.2123 32.9852 20.2622 33.0181 18.2861C33.051 16.31 32.6931 14.3469 31.9648 12.5096L17.9998 26.5346Z" fill="#3276FF"/>
</svg>
