<svg width="92" height="14" viewBox="0 0 92 14" fill="none" xmlns="http://www.w3.org/2000/svg">
<g id="EMEHMON">
<path d="M0.421875 13.7503V1.0243H9.40388V3.0763H2.67188V6.4243H8.52188V8.4403H2.67188V11.6983H9.40388V13.7503H0.421875Z" fill="#232E40"/>
<path d="M11.5488 13.7503V1.0243H14.6268L18.1548 7.4503L21.6468 1.0243H24.6348V13.7503H22.3848V3.8683L18.5868 10.7443H17.6328L13.7988 3.8683V13.7503H11.5488Z" fill="#232E40"/>
<path d="M37.8516 13.7503V1.0243H40.1016V6.4603H46.0416V1.0243H48.2736V13.7503H46.0416V8.51231H40.1016V13.7503H37.8516Z" fill="#232E40"/>
<path d="M51.123 13.7503V1.0243H54.201L57.729 7.4503L61.2211 1.0243H64.209V13.7503H61.959V3.8683L58.161 10.7443H57.207L53.373 3.8683V13.7503H51.123Z" fill="#232E40"/>
<path d="M72.5208 13.8943C71.2128 13.8943 70.0968 13.6183 69.1728 13.0663C68.2608 12.5143 67.5588 11.7463 67.0668 10.7623C66.5868 9.77831 66.3468 8.6563 66.3468 7.3963C66.3468 6.1123 66.5928 4.9843 67.0848 4.0123C67.5768 3.0283 68.2848 2.2603 69.2088 1.7083C70.1328 1.1443 71.2488 0.862305 72.5568 0.862305C73.8648 0.862305 74.9748 1.1383 75.8868 1.6903C76.8108 2.2423 77.5188 3.0103 78.0108 3.9943C78.5028 4.9663 78.7488 6.0883 78.7488 7.3603C78.7488 8.6203 78.5028 9.7423 78.0108 10.7263C77.5308 11.7103 76.8228 12.4843 75.8868 13.0483C74.9628 13.6123 73.8408 13.8943 72.5208 13.8943ZM72.5568 11.8063C73.4688 11.8063 74.2128 11.5963 74.7888 11.1763C75.3648 10.7563 75.7848 10.2103 76.0488 9.5383C76.3248 8.8663 76.4628 8.1523 76.4628 7.3963C76.4628 6.8203 76.3848 6.2683 76.2288 5.7403C76.0848 5.2123 75.8508 4.7383 75.5268 4.3183C75.2148 3.8983 74.8128 3.5683 74.3208 3.3283C73.8288 3.0763 73.2408 2.9503 72.5568 2.9503C71.6568 2.9503 70.9128 3.1603 70.3248 3.58031C69.7488 4.0003 69.3228 4.5463 69.0468 5.2183C68.7708 5.8903 68.6328 6.6163 68.6328 7.3963C68.6328 8.1643 68.7708 8.88431 69.0468 9.5563C69.3228 10.2283 69.7488 10.7743 70.3248 11.1943C70.9128 11.6023 71.6568 11.8063 72.5568 11.8063Z" fill="#232E40"/>
<path d="M80.8828 13.7503V1.0243H83.2948L89.4328 10.2943V1.0243H91.6828V13.7503H89.3248L83.1328 4.5343V13.7503H80.8828Z" fill="#232E40"/>
<path d="M35.7066 13.7503V1.02431H26.7246V3.07631H33.4566V6.42431H27.6066V8.44031H33.4566V11.6983H26.7246V13.7503H35.7066Z" fill="#232E40"/>
</g>
</svg>
