<svg width="102" height="15" viewBox="0 0 102 15" fill="none" xmlns="http://www.w3.org/2000/svg">
<g id="EMEHMON">
<path d="M0.0864258 14.5002V0.360176H10.0677V2.64018H2.58674V6.36018H9.08754V8.60018H2.58674V12.2202H10.0677V14.5002H0.0864258Z" fill="white"/>
<path d="M12.4512 14.5002V0.360176H15.8717L19.7921 7.50018L23.6726 0.360176H26.993V14.5002H24.4927V3.52018L20.2722 11.1602H19.2121L14.9515 3.52018V14.5002H12.4512Z" fill="white"/>
<path d="M41.6801 14.5002V0.360176H44.1804V6.40018H50.7812V0.360176H53.2616V14.5002H50.7812V8.68018H44.1804V14.5002H41.6801Z" fill="white"/>
<path d="M56.428 14.5002V0.360176H59.8485L63.7689 7.50018L67.6494 0.360176H70.9698V14.5002H68.4695V3.52018L64.249 11.1602H63.1889L58.9283 3.52018V14.5002H56.428Z" fill="white"/>
<path d="M80.2063 14.6602C78.7528 14.6602 77.5126 14.3535 76.4858 13.7402C75.4724 13.1268 74.6923 12.2735 74.1455 11.1802C73.6121 10.0868 73.3455 8.84018 73.3455 7.44018C73.3455 6.01351 73.6188 4.76018 74.1655 3.68018C74.7123 2.58684 75.499 1.73351 76.5258 1.12018C77.5526 0.493509 78.7928 0.180176 80.2463 0.180176C81.6998 0.180176 82.9333 0.486842 83.9468 1.10018C84.9736 1.71351 85.7603 2.56684 86.3071 3.66018C86.8538 4.74018 87.1272 5.98684 87.1272 7.40018C87.1272 8.80018 86.8538 10.0468 86.3071 11.1402C85.7737 12.2335 84.9869 13.0935 83.9468 13.7202C82.92 14.3468 81.6731 14.6602 80.2063 14.6602ZM80.2463 12.3402C81.2598 12.3402 82.0865 12.1068 82.7266 11.6402C83.3667 11.1735 83.8334 10.5668 84.1268 9.82018C84.4335 9.07351 84.5868 8.28018 84.5868 7.44018C84.5868 6.80018 84.5002 6.18684 84.3268 5.60018C84.1668 5.01351 83.9068 4.48684 83.5467 4.02018C83.2 3.55351 82.7533 3.18684 82.2065 2.92018C81.6598 2.64018 81.0064 2.50018 80.2463 2.50018C79.2462 2.50018 78.4194 2.73351 77.766 3.20018C77.1259 3.66684 76.6525 4.27351 76.3458 5.02018C76.0391 5.76684 75.8858 6.57351 75.8858 7.44018C75.8858 8.29351 76.0391 9.09351 76.3458 9.84018C76.6525 10.5868 77.1259 11.1935 77.766 11.6602C78.4194 12.1135 79.2462 12.3402 80.2463 12.3402Z" fill="white"/>
<path d="M89.4985 14.5002V0.360176H92.1789L98.9997 10.6602V0.360176H101.5V14.5002H98.8797L91.9988 4.26018V14.5002H89.4985Z" fill="white"/>
<path d="M39.2965 14.5002V0.360179H29.3153V2.64018H36.7962V6.36018H30.2954V8.60018H36.7962V12.2202H29.3153V14.5002H39.2965Z" fill="white"/>
</g>
</svg>
