<svg width="181" height="180" viewBox="0 0 181 180" fill="none" xmlns="http://www.w3.org/2000/svg">
<g id="Frame" clip-path="url(#clip0_8250_21439)">
<path id="Vector" d="M145.357 95.5303H35.1321C30.9434 95.5303 27.5479 98.9069 27.5479 103.072V127.206C27.5479 131.372 30.9434 134.748 35.1321 134.748H145.357C149.546 134.748 152.941 131.372 152.941 127.206V103.072C152.941 98.9069 149.546 95.5303 145.357 95.5303Z" fill="white"/>
<path id="Vector_2" d="M145.357 95.5303H35.1321C30.9434 95.5303 27.5479 98.9069 27.5479 103.072V127.206C27.5479 131.372 30.9434 134.748 35.1321 134.748H145.357C149.546 134.748 152.941 131.372 152.941 127.206V103.072C152.941 98.9069 149.546 95.5303 145.357 95.5303Z" stroke="#F9FAFB"/>
<path id="Vector_3" d="M55.3568 103.072H39.177C36.9431 103.072 35.1321 104.873 35.1321 107.095V123.184C35.1321 125.405 36.9431 127.206 39.177 127.206H55.3568C57.5908 127.206 59.4017 125.405 59.4017 123.184V107.095C59.4017 104.873 57.5908 103.072 55.3568 103.072Z" fill="#F9FAFB"/>
<path id="Vector_4" d="M125.132 106.09H70.5254C68.8499 106.09 67.4917 107.44 67.4917 109.107C67.4917 110.773 68.8499 112.123 70.5254 112.123H125.132C126.808 112.123 128.166 110.773 128.166 109.107C128.166 107.44 126.808 106.09 125.132 106.09Z" fill="black"/>
<path id="Vector_5" d="M142.323 118.156H70.5254C68.8499 118.156 67.4917 119.507 67.4917 121.173C67.4917 122.839 68.8499 124.19 70.5254 124.19H142.323C143.999 124.19 145.357 122.839 145.357 121.173C145.357 119.507 143.999 118.156 142.323 118.156Z" fill="#F9FAFB"/>
<path id="Vector_6" d="M152.941 73.4082H27.5476C23.359 73.4082 19.9634 76.7848 19.9634 80.9501V105.084C19.9634 109.249 23.359 112.626 27.5476 112.626H152.941C157.13 112.626 160.525 109.249 160.525 105.084V80.9501C160.525 76.7848 157.13 73.4082 152.941 73.4082Z" fill="white"/>
<path id="Vector_7" d="M152.941 73.4082H27.5476C23.359 73.4082 19.9634 76.7848 19.9634 80.9501V105.084C19.9634 109.249 23.359 112.626 27.5476 112.626H152.941C157.13 112.626 160.525 109.249 160.525 105.084V80.9501C160.525 76.7848 157.13 73.4082 152.941 73.4082Z" stroke="#EEEFF1"/>
<path id="Vector_8" d="M47.7726 80.9502H31.5928C29.3588 80.9502 27.5479 82.7511 27.5479 84.9725V101.062C27.5479 103.283 29.3588 105.084 31.5928 105.084H47.7726C50.0065 105.084 51.8175 103.283 51.8175 101.062V84.9725C51.8175 82.7511 50.0065 80.9502 47.7726 80.9502Z" fill="#F0F1F3"/>
<path id="Vector_9" d="M117.548 83.9668H62.9409C61.2655 83.9668 59.9072 85.3174 59.9072 86.9836C59.9072 88.6497 61.2655 90.0003 62.9409 90.0003H117.548C119.223 90.0003 120.581 88.6497 120.581 86.9836C120.581 85.3174 119.223 83.9668 117.548 83.9668Z" fill="black"/>
<path id="Vector_10" d="M149.907 96.0332H62.9409C61.2655 96.0332 59.9072 97.3839 59.9072 99.05C59.9072 100.716 61.2655 102.067 62.9409 102.067H149.907C151.583 102.067 152.941 100.716 152.941 99.05C152.941 97.3839 151.583 96.0332 149.907 96.0332Z" fill="#F0F1F3"/>
<g id="Group" filter="url(#filter0_d_8250_21439)">
<path id="Vector_11" d="M160.02 50.7822H20.469C16.0011 50.7822 12.3792 54.384 12.3792 58.8269V82.961C12.3792 87.404 16.0011 91.0057 20.469 91.0057H160.02C164.488 91.0057 168.11 87.404 168.11 82.961V58.8269C168.11 54.384 164.488 50.7822 160.02 50.7822Z" fill="white"/>
<path id="Vector_12" d="M160.02 51.2852H20.469C16.2804 51.2852 12.8848 54.6618 12.8848 58.8271V82.9611C12.8848 87.1264 16.2804 90.503 20.469 90.503H160.02C164.208 90.503 167.604 87.1264 167.604 82.9611V58.8271C167.604 54.6618 164.208 51.2852 160.02 51.2852Z" stroke="#F3F4F6"/>
<path id="Vector_13" d="M40.6937 58.8271H24.5139C22.28 58.8271 20.469 60.628 20.469 62.8495V78.9389C20.469 81.1604 22.28 82.9612 24.5139 82.9612H40.6937C42.9277 82.9612 44.7387 81.1604 44.7387 78.9389V62.8495C44.7387 60.628 42.9277 58.8271 40.6937 58.8271Z" fill="#E5E7EA"/>
<path id="Vector_14" d="M110.469 61.8438H55.8623C54.1869 61.8438 52.8286 63.1944 52.8286 64.8605C52.8286 66.5266 54.1869 67.8773 55.8623 67.8773H110.469C112.145 67.8773 113.503 66.5266 113.503 64.8605C113.503 63.1944 112.145 61.8438 110.469 61.8438Z" fill="#E5E7EA"/>
<path id="Vector_15" d="M156.986 73.9111H55.8623C54.1869 73.9111 52.8286 75.2618 52.8286 76.9279C52.8286 78.594 54.1869 79.9447 55.8623 79.9447H156.986C158.661 79.9447 160.02 78.594 160.02 76.9279C160.02 75.2618 158.661 73.9111 156.986 73.9111Z" fill="#E5E7EA"/>
</g>
</g>
<defs>
<filter id="filter0_d_8250_21439" x="0.37915" y="44.7822" width="179.73" height="64.2236" filterUnits="userSpaceOnUse" color-interpolation-filters="sRGB">
<feFlood flood-opacity="0" result="BackgroundImageFix"/>
<feColorMatrix in="SourceAlpha" type="matrix" values="0 0 0 0 0 0 0 0 0 0 0 0 0 0 0 0 0 0 127 0" result="hardAlpha"/>
<feOffset dy="6"/>
<feGaussianBlur stdDeviation="6"/>
<feComposite in2="hardAlpha" operator="out"/>
<feColorMatrix type="matrix" values="0 0 0 0 0 0 0 0 0 0 0 0 0 0 0 0 0 0 0.03 0"/>
<feBlend mode="normal" in2="BackgroundImageFix" result="effect1_dropShadow_8250_21439"/>
<feBlend mode="normal" in="SourceGraphic" in2="effect1_dropShadow_8250_21439" result="shape"/>
</filter>
<clipPath id="clip0_8250_21439">
<rect width="180" height="180" fill="white" transform="translate(0.75)"/>
</clipPath>
</defs>
</svg>
