<svg width="13" height="12" viewBox="0 0 13 12" fill="none" xmlns="http://www.w3.org/2000/svg">
<path d="M9.4165 5.3026C9.4165 5.10099 9.4165 5.00018 9.44687 4.91031C9.53506 4.64926 9.76754 4.54794 10.0005 4.44185C10.2623 4.32258 10.3933 4.26294 10.523 4.25245C10.6703 4.24054 10.8178 4.27227 10.9437 4.34292C11.1105 4.43657 11.227 4.61454 11.3461 4.75926C11.8964 5.42766 12.1716 5.76186 12.2722 6.13041C12.3535 6.42782 12.3535 6.73884 12.2722 7.03626C12.1254 7.57379 11.6615 8.02438 11.318 8.44148C11.1424 8.65484 11.0546 8.76151 10.9437 8.82375C10.8178 8.8944 10.6703 8.92613 10.523 8.91422C10.3933 8.90372 10.2623 8.84409 10.0005 8.72482C9.76754 8.61872 9.53506 8.51741 9.44687 8.25635C9.4165 8.16648 9.4165 8.06568 9.4165 7.86407V5.3026Z" stroke="white" strokeWidth="1.2"/>
<path d="M3.58301 5.30269C3.58301 5.0488 3.57588 4.82062 3.37062 4.64212C3.29597 4.57719 3.19699 4.53211 2.99904 4.44194C2.73718 4.32267 2.60625 4.26304 2.47652 4.25255C2.08729 4.22107 1.87788 4.48672 1.65341 4.75935C1.10311 5.42776 0.827961 5.76196 0.727279 6.1305C0.646029 6.42792 0.646029 6.73894 0.727279 7.03636C0.874127 7.57389 1.33806 8.02447 1.68146 8.44157C1.89793 8.70449 2.10471 8.94438 2.47652 8.91431C2.60625 8.90382 2.73718 8.84419 2.99904 8.72491C3.19699 8.63475 3.29597 8.58967 3.37062 8.52474C3.57588 8.34624 3.58301 8.11806 3.58301 7.86417V5.30269Z" stroke="white" strokeWidth="1.2"/>
<path d="M2.4165 4.25C2.4165 2.317 4.24467 0.75 6.49984 0.75C8.755 0.75 10.5832 2.317 10.5832 4.25" stroke="white" strokeWidth="1.2" strokeLinecap="square" strokeLinejoin="round"/>
<path d="M10.583 8.91699V9.38366C10.583 10.4146 9.53834 11.2503 8.24967 11.2503H7.08301" stroke="white" strokeWidth="1.2" strokeLinecap="round" strokeLinejoin="round"/>
</svg>
