<svg width="24" height="22" viewBox="0 0 24 22" fill="none" xmlns="http://www.w3.org/2000/svg">
<g id="elements">
<path id="Rectangle 2100" d="M17.4167 9.70482C17.4167 9.3304 17.4167 9.14319 17.4731 8.9763C17.6369 8.49148 18.0687 8.30332 18.5013 8.10629C18.9876 7.88479 19.2307 7.77404 19.4717 7.75455C19.7451 7.73243 20.0192 7.79136 20.2529 7.92256C20.5628 8.0965 20.779 8.42701 21.0003 8.69577C22.0223 9.93709 22.5333 10.5577 22.7202 11.2422C22.8711 11.7945 22.8711 12.3721 22.7202 12.9245C22.4475 13.9228 21.5859 14.7596 20.9482 15.5342C20.622 15.9304 20.4588 16.1285 20.2529 16.2441C20.0192 16.3753 19.7451 16.4342 19.4717 16.4121C19.2307 16.3926 18.9876 16.2819 18.5013 16.0604C18.0687 15.8633 17.6369 15.6752 17.4731 15.1904C17.4167 15.0235 17.4167 14.8363 17.4167 14.4618V9.70482Z" stroke="white" strokeWidth="1.5"/>
<path id="Rectangle 2102" d="M6.5835 9.70451C6.5835 9.23299 6.57025 8.80923 6.18907 8.47773C6.05042 8.35715 5.8666 8.27343 5.49898 8.10598C5.01267 7.88448 4.76952 7.77373 4.52859 7.75424C3.80574 7.69578 3.41683 8.18914 2.99997 8.69546C1.97797 9.93678 1.46698 10.5574 1.28 11.2419C1.12911 11.7942 1.12911 12.3718 1.28 12.9242C1.55272 13.9225 2.41431 14.7592 3.05206 15.5339C3.45406 16.0221 3.83808 16.4677 4.52859 16.4118C4.76952 16.3923 5.01267 16.2816 5.49898 16.0601C5.8666 15.8926 6.05042 15.8089 6.18907 15.6883C6.57025 15.3568 6.5835 14.9331 6.5835 14.4615V9.70451Z" stroke="white" strokeWidth="1.5"/>
<path id="Vector 4310" d="M4.41675 7.75C4.41675 4.16015 7.81192 1.25 12.0001 1.25C16.1882 1.25 19.5834 4.16015 19.5834 7.75" stroke="white" strokeWidth="1.5" strokeLinecap="square" strokeLinejoin="round"/>
<path id="Vector 6251" d="M19.5835 16.4165V17.2832C19.5835 19.1978 17.6434 20.7498 15.2502 20.7498H13.0835" stroke="white" strokeWidth="1.5" strokeLinecap="round" strokeLinejoin="round"/>
</g>
</svg>
