<svg width="20" height="25" viewBox="0 0 20 25" fill="none" xmlns="http://www.w3.org/2000/svg">
<g id="elements">
<path id="Vector" d="M12.6987 16.2915H12.7084M7.29175 16.2915H7.30146" stroke="#F8F8FA" strokeWidth="2" strokeLinecap="round" strokeLinejoin="round"/>
<path id="Vector_2" d="M1.6235 19.9151C1.86712 21.7246 3.36585 23.1421 5.18967 23.226C6.72434 23.2965 8.28329 23.3333 10 23.3333C11.7168 23.3333 13.2757 23.2965 14.8104 23.226C16.6342 23.1421 18.133 21.7246 18.3766 19.9151C18.5356 18.7342 18.6667 17.5241 18.6667 16.2917C18.6667 15.0592 18.5356 13.8491 18.3766 12.6682C18.133 10.8588 16.6342 9.4412 14.8104 9.35735C13.2757 9.2868 11.7168 9.25 10 9.25C8.28329 9.25 6.72434 9.2868 5.18967 9.35735C3.36585 9.4412 1.86712 10.8588 1.6235 12.6682C1.46451 13.8491 1.33337 15.0592 1.33337 16.2917C1.33337 17.5241 1.46451 18.7342 1.6235 19.9151Z" stroke="#F8F8FA" strokeWidth="1.5"/>
<path id="Vector 6658" d="M5.125 9.24984V6.5415C5.125 3.84912 7.30761 1.6665 10 1.6665C12.6924 1.6665 14.875 3.84912 14.875 6.5415V9.24984" stroke="#F8F8FA" strokeWidth="1.5" strokeLinecap="round" strokeLinejoin="round"/>
</g>
</svg>
