<svg width="20" height="21" viewBox="0 0 20 21" fill="none" xmlns="http://www.w3.org/2000/svg">
<g id="fi_6177275" clip-path="url(#clip0_8446_29474)">
<g id="KYRGYZSTAN">
<g id="Group">
<path id="Vector" d="M13.2903 10.3592C13.2774 10.1965 13.2597 10.0315 13.2297 9.87091C13.2489 9.86151 13.2659 9.84444 13.2903 9.81728C13.2659 9.83156 13.244 9.84444 13.2249 9.84444C13.1883 9.68389 13.1447 9.531 13.0894 9.37846C13.1009 9.36139 13.1249 9.34363 13.1378 9.32065C13.1186 9.33771 13.1012 9.3499 13.0793 9.35721C13.0242 9.19597 12.9535 9.05527 12.8717 8.91387C12.8846 8.8975 12.9017 8.87312 12.9132 8.84979C12.8961 8.86755 12.8769 8.87277 12.8616 8.89193C12.778 8.74914 12.691 8.61366 12.5917 8.48724C12.5966 8.46739 12.6081 8.44371 12.6196 8.41584C12.6018 8.43883 12.5847 8.44997 12.5673 8.46739C12.4667 8.33818 12.3545 8.22186 12.2382 8.11564C12.2382 8.08638 12.2511 8.062 12.256 8.03797C12.2445 8.06166 12.226 8.08151 12.2131 8.09091C12.0982 7.9826 11.9669 7.88613 11.8321 7.79767C11.8321 7.77329 11.8391 7.74403 11.8391 7.71931C11.8321 7.73916 11.8213 7.76214 11.8098 7.77294C11.673 7.69144 11.5337 7.61517 11.386 7.54517C11.3797 7.52079 11.3797 7.49363 11.3797 7.4696C11.3748 7.49328 11.3682 7.51522 11.356 7.53507C11.2105 7.4696 11.0576 7.41596 10.9043 7.36163C10.8988 7.34457 10.8928 7.31462 10.8866 7.29303C10.881 7.31497 10.881 7.34004 10.8751 7.3578C10.7166 7.31497 10.5641 7.2878 10.399 7.26865C10.3868 7.24427 10.3812 7.22651 10.3697 7.19795V7.26865C10.259 7.25297 10.1399 7.25297 10.0232 7.25297H9.88809C9.8759 7.23382 9.85883 7.20944 9.84873 7.1875C9.85361 7.20944 9.85361 7.23382 9.85883 7.25297C9.69375 7.26447 9.53564 7.27526 9.37544 7.31497C9.35733 7.29303 9.34026 7.27561 9.32981 7.25297C9.33538 7.27526 9.34026 7.2979 9.34723 7.31497C9.18876 7.35223 9.02891 7.39855 8.88298 7.44975C8.86 7.43965 8.83945 7.42258 8.82343 7.3989C8.83492 7.42746 8.84607 7.44592 8.85373 7.46542C8.70119 7.52114 8.55422 7.58592 8.41317 7.6695C8.39436 7.65662 8.37242 7.64443 8.34735 7.62736C8.36685 7.64965 8.3773 7.66289 8.38949 7.68587C8.24913 7.76284 8.11331 7.85513 7.98933 7.95578C7.96669 7.94568 7.94231 7.93349 7.92037 7.92653C7.93743 7.93872 7.95415 7.95578 7.96669 7.97215C7.8427 8.07628 7.72603 8.18564 7.61285 8.30893C7.59125 8.29813 7.56653 8.29256 7.53623 8.28664C7.5613 8.29813 7.57941 8.31519 7.59683 8.32007C7.48434 8.44997 7.38403 8.57431 7.29766 8.71048C7.27294 8.71048 7.24856 8.70421 7.2207 8.70421C7.24229 8.7164 7.26144 8.7265 7.27955 8.73068C7.19109 8.86755 7.11447 9.00616 7.04203 9.15452C7.02183 9.15452 6.99606 9.16079 6.96611 9.16079C6.99606 9.17228 7.01382 9.17228 7.03159 9.18517C6.96611 9.33214 6.91387 9.48364 6.86616 9.64245C6.84387 9.64802 6.82123 9.65533 6.7965 9.6616C6.82123 9.6616 6.8369 9.6616 6.86163 9.66648C6.82158 9.81763 6.79128 9.98549 6.77387 10.1447C6.75053 10.161 6.72511 10.1669 6.6976 10.1788C6.72511 10.1718 6.75019 10.1718 6.76795 10.1788C6.7568 10.2829 6.75018 10.4086 6.75018 10.525V10.6597C6.73033 10.6719 6.70804 10.682 6.68506 10.6946C6.7077 10.6946 6.73033 10.6897 6.75645 10.6897C6.76203 10.8475 6.78606 11.0122 6.81461 11.1665C6.79616 11.1835 6.77352 11.2027 6.75645 11.218C6.78014 11.2124 6.79616 11.2086 6.82123 11.195C6.85014 11.3598 6.89785 11.5189 6.95566 11.6666C6.9386 11.6837 6.9184 11.7007 6.90203 11.7237C6.92397 11.7059 6.94382 11.7007 6.96228 11.6951C7.02218 11.8421 7.08905 11.9891 7.17194 12.1277C7.16184 12.1455 7.14408 12.1754 7.13154 12.1956C7.15139 12.1813 7.16741 12.1643 7.18622 12.1514C7.26597 12.2882 7.35652 12.4303 7.45578 12.5505C7.44846 12.577 7.43767 12.6055 7.42617 12.6289C7.4422 12.6059 7.46065 12.594 7.47702 12.5773C7.57941 12.7037 7.68947 12.8173 7.80823 12.9329C7.80091 12.9513 7.79638 12.9764 7.78872 13.0057C7.80091 12.982 7.81275 12.9628 7.82564 12.9513C7.94823 13.0628 8.07709 13.1575 8.21187 13.2505C8.20665 13.2749 8.20665 13.2975 8.20665 13.3198C8.21187 13.2975 8.22371 13.2819 8.2352 13.2634C8.37207 13.3505 8.51243 13.4219 8.6587 13.4974C8.6587 13.5295 8.6587 13.5511 8.66427 13.5737C8.67089 13.5514 8.67646 13.5295 8.68865 13.5082C8.82796 13.5737 8.98224 13.634 9.1414 13.6737C9.14593 13.6973 9.15359 13.7273 9.15812 13.7513C9.15812 13.7276 9.16369 13.6977 9.16926 13.6858C9.32389 13.7273 9.4827 13.7513 9.64709 13.775C9.65231 13.7973 9.6638 13.8158 9.67634 13.8398C9.66972 13.8161 9.66972 13.7976 9.67634 13.775C9.78674 13.7858 9.9048 13.7973 10.0225 13.7973C10.0629 13.7973 10.1092 13.7917 10.1583 13.7917C10.1698 13.8095 10.1872 13.8332 10.1987 13.8575C10.1921 13.8332 10.1873 13.8091 10.1873 13.7855C10.3506 13.7792 10.5097 13.7625 10.6675 13.7318C10.686 13.751 10.7041 13.7625 10.7159 13.7855C10.711 13.7625 10.7044 13.7468 10.6982 13.7269C10.8552 13.6855 11.0092 13.6448 11.1634 13.5849C11.1791 13.604 11.1976 13.6211 11.2213 13.634C11.2098 13.6211 11.1976 13.5977 11.1913 13.5789C11.3442 13.5291 11.4859 13.4511 11.6246 13.3741C11.6489 13.3815 11.666 13.3971 11.6904 13.4163C11.6803 13.3919 11.666 13.3741 11.6489 13.3564C11.7952 13.2749 11.9265 13.1864 12.0543 13.0858C12.0787 13.0921 12.1027 13.1021 12.1264 13.1157C12.11 13.098 12.0898 13.0858 12.0787 13.0628C12.202 12.9628 12.3214 12.8573 12.4291 12.7396C12.4541 12.7396 12.4789 12.7511 12.5011 12.7574C12.4848 12.7396 12.4656 12.7274 12.4489 12.7097C12.5611 12.6003 12.6544 12.4697 12.7474 12.3356C12.7704 12.3356 12.8017 12.3419 12.825 12.3419C12.8021 12.3297 12.7822 12.3168 12.761 12.3057C12.8536 12.1751 12.9309 12.0295 12.9971 11.8804H13.0734C13.0483 11.8749 13.0305 11.8648 13.0068 11.8519C13.0789 11.7098 13.1312 11.5586 13.1709 11.4064C13.1946 11.3928 13.2245 11.3887 13.2485 11.3827C13.2249 11.3786 13.2022 11.3786 13.1827 11.3706C13.2249 11.218 13.2548 11.0602 13.2712 10.8959C13.2955 10.8889 13.3196 10.8788 13.3426 10.8729C13.3196 10.8729 13.2955 10.8729 13.2771 10.8666C13.29 10.7545 13.2955 10.6368 13.2955 10.5253C13.2955 10.4783 13.2955 10.4313 13.29 10.3853C13.3123 10.3745 13.33 10.3602 13.3534 10.3425C13.3304 10.3463 13.313 10.3536 13.2903 10.3592ZM12.1661 8.707C11.7308 8.74322 11.317 8.85048 10.935 9.01522C10.8852 8.98108 10.8343 8.94243 10.7831 8.90516C11.1864 8.73381 11.6197 8.62829 12.0797 8.59903C12.1097 8.6356 12.1383 8.67008 12.1661 8.707ZM11.9286 8.43152C11.4361 8.45137 10.9635 8.5663 10.5282 8.74322C10.4655 8.707 10.4039 8.67043 10.3394 8.63978C10.7936 8.4458 11.2881 8.33714 11.8077 8.31519C11.8499 8.35455 11.8885 8.39112 11.9286 8.43152ZM10.6275 9.16811C10.5641 9.19806 10.4983 9.2388 10.437 9.27816C10.3847 9.2388 10.3335 9.19806 10.2806 9.16393C10.3433 9.12179 10.4077 9.08487 10.47 9.05457C10.5226 9.08905 10.5749 9.12805 10.6275 9.16811ZM10.0225 7.6211C10.6097 7.6211 11.1492 7.80812 11.5866 8.13549C11.0356 8.16126 10.5052 8.28037 10.0225 8.49003C9.53703 8.28037 9.00801 8.16161 8.45392 8.13549C8.89657 7.80846 9.43673 7.6211 10.0225 7.6211ZM10.0225 8.99467C9.95809 8.96123 9.89436 8.92745 9.83306 8.89193C9.89296 8.85466 9.95809 8.82332 10.0225 8.7871C10.0876 8.82332 10.15 8.85432 10.2148 8.89193C10.1493 8.9271 10.0859 8.96123 10.0225 8.99467ZM10.1796 9.44951C10.1256 9.48956 10.0734 9.52961 10.0225 9.5707C9.96784 9.52996 9.91874 9.48991 9.8651 9.44951C9.91595 9.40597 9.96645 9.36801 10.0225 9.3304C10.0755 9.36801 10.1287 9.40597 10.1796 9.44951ZM8.23277 8.31519C8.75378 8.33714 9.25076 8.4458 9.70594 8.63978C9.63873 8.67043 9.57708 8.707 9.51509 8.74322C9.08184 8.5663 8.6089 8.45137 8.1154 8.43152C8.15266 8.39112 8.19446 8.35455 8.23277 8.31519ZM7.96599 8.59869C8.42257 8.62794 8.8593 8.73347 9.26051 8.90481C9.20861 8.94208 9.15742 8.98108 9.10692 9.01487C8.72766 8.85014 8.31356 8.74287 7.87788 8.70665C7.90853 8.67008 7.935 8.6356 7.96599 8.59869ZM7.35199 10.3244C7.35199 9.78907 7.50558 9.28582 7.77166 8.8672C8.16834 8.91143 8.54969 9.02288 8.899 9.17925C8.26411 9.71872 7.77584 10.4274 7.5108 11.2438C7.40563 10.9558 7.35199 10.6489 7.35199 10.3244ZM7.97226 12.0591C7.90191 11.9699 7.83052 11.8742 7.76574 11.77C7.96704 10.805 8.48387 9.95241 9.20687 9.33562C9.26747 9.37115 9.32946 9.4098 9.3925 9.45334C8.64163 10.1053 8.12062 11.0188 7.97226 12.0591ZM8.55561 12.5815C8.47586 12.5306 8.39227 12.4693 8.31705 12.4067C8.38496 11.3026 8.88438 10.3244 9.64917 9.63409C9.70211 9.67414 9.75331 9.71907 9.8045 9.76121C9.05538 10.4692 8.57755 11.4663 8.55561 12.5815ZM11.1258 12.7842C10.7891 12.9371 10.4171 13.0238 10.0225 13.0238C9.62723 13.0238 9.25528 12.9374 8.91572 12.7842C8.91572 12.7448 8.91363 12.7044 8.91363 12.6658C8.91363 11.6116 9.33608 10.657 10.0225 9.96181C10.7048 10.657 11.1272 11.6112 11.1272 12.6658C11.1272 12.7044 11.1272 12.7445 11.1258 12.7842ZM11.4877 12.5815C11.464 11.4667 10.989 10.4696 10.2398 9.76121C10.2896 9.71907 10.3433 9.67414 10.3955 9.63409C11.16 10.3244 11.658 11.3026 11.7266 12.4067C11.6503 12.469 11.5716 12.5303 11.4877 12.5815ZM12.0676 12.0591C11.9227 11.0192 11.4017 10.1056 10.6515 9.45334C10.7128 9.4098 10.7748 9.37115 10.8357 9.33562C11.5601 9.95241 12.077 10.805 12.2779 11.77C12.2128 11.8738 12.1449 11.9699 12.0676 12.0591ZM12.5346 11.2441C12.2692 10.4278 11.7816 9.71907 11.1436 9.1796C11.4953 9.02323 11.8736 8.91143 12.272 8.86755C12.5388 9.28582 12.6937 9.78907 12.6937 10.3247C12.6937 10.6489 12.6359 10.9558 12.5346 11.2441Z" fill="#D51F3A"/>
<path id="Vector_2" d="M15.762 0.5H4.23565C1.97921 0.5 0.129208 2.26781 0.0100998 4.49499C1.55688e-08 4.57788 0 4.65415 0 4.73495V16.2644C0 16.3466 1.55688e-08 16.4235 0.0100998 16.5064C0.129208 18.7315 1.97921 20.5007 4.23565 20.5007H15.762C18.0194 20.5007 19.8712 18.7315 19.9882 16.5064C19.9997 16.4235 19.9997 16.3466 19.9997 16.2644V4.73495C19.9997 4.65415 19.9997 4.57788 19.9882 4.49499C19.8712 2.26781 18.0194 0.5 15.762 0.5ZM15.9532 11.4645C15.3465 11.9577 14.3588 11.2354 13.5954 11.3538C13.5898 11.3594 13.5898 11.3639 13.5898 11.3702C14.3177 11.4645 14.9299 12.3223 15.7344 12.3756C15.0584 12.7754 14.1822 11.8995 13.4066 11.8995C13.4066 11.9051 13.4066 11.9166 13.4017 11.9166C14.1195 12.1165 14.5834 13.0628 15.3688 13.2505C14.635 13.5388 13.9116 12.5282 13.1444 12.4171C13.1374 12.4171 13.1374 12.4233 13.1374 12.43C13.8127 12.7274 14.1293 13.7509 14.8753 14.0501C14.1052 14.2207 13.5428 13.1018 12.802 12.8754C12.802 12.881 12.7947 12.881 12.7884 12.8869C13.423 13.286 13.5699 14.3479 14.2693 14.7668C13.4728 14.8139 13.0939 13.6085 12.39 13.2745C12.39 13.2815 12.3837 13.286 12.3771 13.286C12.9486 13.7743 12.9267 14.8605 13.5539 15.3836C12.7547 15.3021 12.5725 14.0497 11.9268 13.6081L11.9212 13.6155C12.4022 14.1964 12.2075 15.2527 12.7477 15.8719C11.9728 15.6657 11.9899 14.4025 11.4204 13.868C11.4149 13.868 11.4103 13.8735 11.4103 13.8735C11.7952 14.5081 11.4438 15.5372 11.8791 16.2285C11.1446 15.913 11.3553 14.6613 10.8743 14.0445L10.8688 14.0501C11.1564 14.7432 10.6403 15.6964 10.9628 16.4532C10.2868 16.0178 10.6981 14.8194 10.3098 14.1389H10.3039C10.4798 14.8668 9.82188 15.7305 10.0225 16.5245C9.42137 15.9941 10.0173 14.8668 9.74526 14.1389C9.74003 14.1389 9.73342 14.1389 9.73342 14.1389C9.79854 14.8859 9.01006 15.6298 9.08285 16.4532C8.57716 15.8367 9.335 14.8139 9.18211 14.0501C9.18211 14.0445 9.17654 14.0445 9.16922 14.0445C9.11803 14.7947 8.22367 15.4063 8.16516 16.2285C7.76013 15.5421 8.6705 14.6613 8.64159 13.8735C8.64159 13.8735 8.63533 13.8735 8.63533 13.868C8.45771 14.6 7.47629 15.0733 7.29658 15.8719C7.0009 15.1304 8.03595 14.3945 8.13556 13.6203C8.12894 13.6155 8.12372 13.6155 8.12372 13.6081C7.8357 14.3082 6.79577 14.6188 6.49069 15.3836C6.32073 14.6 7.45504 14.0376 7.67236 13.286C7.66574 13.286 7.66574 13.286 7.66157 13.2811C7.2722 13.9198 6.1971 14.0619 5.7736 14.7668C5.72693 13.9724 6.92985 13.5977 7.26106 12.8921C7.26106 12.8865 7.26106 12.8865 7.25479 12.8865C6.76164 13.4452 5.68584 13.4211 5.161 14.0497C5.23971 13.2627 6.47884 13.0742 6.91766 12.439C6.91766 12.4341 6.91314 12.4296 6.91314 12.4226C6.33849 12.898 5.28602 12.7089 4.66959 13.2498C4.87019 12.4804 6.11386 12.486 6.65402 11.9344C6.65402 11.9288 6.64915 11.9288 6.64288 11.925C6.00903 12.2875 4.99696 11.9462 4.31122 12.3753C4.62153 11.6523 5.84465 11.8515 6.4684 11.3925C6.4684 11.3925 6.46248 11.3824 6.46248 11.3782C5.77325 11.6422 4.83328 11.1421 4.08763 11.4645C4.51147 10.7959 5.67992 11.1776 6.3674 10.8352C6.3674 10.8283 6.3674 10.8182 6.36009 10.8129C5.64404 10.9529 4.79775 10.3313 4.01589 10.5246C4.53376 9.93739 5.62036 10.489 6.35486 10.2592V10.2369C5.62071 10.2592 4.88691 9.50832 4.08763 9.57902C4.69292 9.08378 5.67504 9.7946 6.43113 9.69604C6.43113 9.68385 6.43113 9.67236 6.4367 9.66609C5.71544 9.57275 5.1091 8.72124 4.31087 8.66133C4.9799 8.27441 5.83281 9.11965 6.59691 9.14369C6.60248 9.1315 6.60248 9.12 6.6084 9.11304C5.90768 8.89746 5.44553 7.97246 4.66924 7.79066C5.39155 7.51588 6.09645 8.47501 6.8494 8.62058C6.8494 8.61362 6.85637 8.60282 6.86055 8.59621C6.21451 8.27441 5.89793 7.28811 5.16065 6.99417C5.91326 6.82804 6.46213 7.87564 7.17782 8.15112C7.18513 8.13266 7.19001 8.12604 7.19663 8.12047C6.60875 7.69941 6.45516 6.6769 5.77325 6.26977C6.54467 6.22833 6.91732 7.34522 7.57868 7.72832C7.58495 7.71543 7.59609 7.70986 7.60166 7.70464C7.09458 7.19373 7.09458 6.17086 6.49069 5.66552C7.25444 5.73622 7.45504 6.88725 8.0363 7.37552C8.04675 7.36264 8.05859 7.35846 8.07113 7.35323C7.6553 6.77023 7.81271 5.75886 7.29693 5.17307C8.0363 5.36636 8.05198 6.52958 8.55348 7.09935C8.56428 7.09308 8.57682 7.09308 8.58727 7.08298C8.27104 6.44007 8.58239 5.47084 8.16516 4.80774C8.86483 5.11317 8.70045 6.2635 9.10584 6.90432C9.11768 6.90432 9.13056 6.89944 9.14136 6.89422C8.92892 6.21335 9.38724 5.30646 9.08285 4.59111C9.72192 5.00068 9.38201 6.1134 9.68257 6.80576H9.71635C9.62267 6.09355 10.2119 5.27128 10.0228 4.51415C10.5922 5.02645 10.0813 6.06568 10.2628 6.80018C10.2753 6.80018 10.2927 6.80018 10.3039 6.80576C10.3216 6.08867 11.0255 5.37124 10.9628 4.59111C11.4438 5.17934 10.78 6.13046 10.8444 6.88342C10.8552 6.88342 10.8688 6.8876 10.8858 6.8876C11.0091 6.18897 11.8258 5.59587 11.8791 4.80809C12.2601 5.47119 11.4553 6.30738 11.4023 7.05964C11.4152 7.06661 11.4267 7.06661 11.4378 7.07253C11.6726 6.39445 12.5725 5.92986 12.748 5.17342C13.0242 5.88145 12.0902 6.58356 11.9272 7.32224C11.9387 7.32955 11.9501 7.33721 11.9557 7.34139C12.2967 6.70615 13.2596 6.39445 13.5543 5.66587C13.7134 6.40594 12.678 6.9583 12.4025 7.66354C12.4074 7.67712 12.4203 7.682 12.4297 7.68653C12.8543 7.11119 13.859 6.95273 14.2696 6.27047C14.3118 7.04676 13.1949 7.41732 12.8125 8.08251C12.8253 8.08739 12.8302 8.09749 12.8368 8.10445C13.353 7.59981 14.3769 7.59981 14.8756 6.99487C14.8049 7.75792 13.6368 7.95191 13.16 8.55267C13.1656 8.56417 13.1708 8.57496 13.1764 8.57984C13.766 8.15182 14.7757 8.31585 15.3688 7.79136C15.1824 8.53944 13.9826 8.55267 13.4233 9.07368C13.4303 9.07368 13.4362 9.08448 13.4362 9.10433C14.0823 8.76338 15.0578 9.08448 15.7341 8.66203C15.422 9.37424 14.2348 9.19662 13.5995 9.62116C13.6076 9.63823 13.6076 9.6431 13.6131 9.65599C14.3003 9.41394 15.2218 9.8956 15.9525 9.57972C15.5363 10.2376 14.3818 9.87157 13.6894 10.2021C13.6957 10.2083 13.6957 10.2184 13.6957 10.2258C14.4121 10.0965 15.2535 10.7126 16.028 10.5249C15.5112 11.1065 14.4253 10.5542 13.6894 10.7767V10.8067C14.4187 10.784 15.1518 11.5304 15.9532 11.4645Z" fill="#D51F3A"/>
<g id="Group_2">
<path id="Vector_3" d="M16.0287 10.5254C15.2538 10.7131 14.4124 10.097 13.6964 10.2263C13.6964 10.2189 13.6964 10.2085 13.6901 10.2026C14.3825 9.87207 15.537 10.2381 15.9532 9.58022C15.2225 9.89575 14.301 9.41409 13.6138 9.65649C13.6083 9.6436 13.6083 9.63873 13.6003 9.62166C14.2355 9.19712 15.4224 9.37474 15.7348 8.66253C15.0588 9.08498 14.0833 8.76388 13.4369 9.10483C13.4369 9.08498 13.4307 9.07418 13.424 9.07418C13.983 8.55317 15.1831 8.54029 15.3695 7.79186C14.7764 8.31635 13.7667 8.15232 13.1771 8.58034C13.1715 8.57546 13.1663 8.56467 13.1607 8.55317C13.6375 7.95241 14.8056 7.75877 14.8763 6.99537C14.3776 7.59996 13.354 7.59996 12.8376 8.10495C12.8306 8.09799 12.8261 8.08789 12.8132 8.08301C13.1956 7.41782 14.3125 7.04691 14.2703 6.27097C13.8594 6.95323 12.855 7.11169 12.4304 7.68703C12.421 7.68215 12.4081 7.67763 12.4033 7.66404C12.6787 6.9588 13.7141 6.40644 13.555 5.66637C13.2604 6.39495 12.2974 6.7063 11.9564 7.34189C11.9509 7.33772 11.9394 7.3304 11.9279 7.32274C12.0912 6.58406 13.0249 5.88195 12.7487 5.17392C12.5732 5.93036 11.6733 6.39495 11.4386 7.07303C11.4278 7.06676 11.4163 7.06676 11.403 7.06015C11.456 6.30788 12.2608 5.47169 11.8798 4.80859C11.8269 5.59637 11.0098 6.18947 10.8866 6.8881C10.8695 6.8881 10.8559 6.88392 10.8451 6.88392C10.7803 6.13096 11.4445 5.17984 10.9635 4.59162C11.0262 5.37174 10.3224 6.08952 10.3046 6.80626C10.2935 6.80069 10.276 6.80068 10.2635 6.80068C10.0821 6.06619 10.593 5.0266 10.0235 4.51465C10.2127 5.27178 9.62373 6.09405 9.71707 6.80626H9.68328C9.38308 6.1139 9.72264 5.00083 9.08356 4.59162C9.38795 5.30731 8.92963 6.21385 9.14207 6.89472C9.13163 6.90029 9.11874 6.90482 9.10655 6.90482C8.70117 6.264 8.86555 5.11367 8.16588 4.80824C8.5831 5.47134 8.27175 6.44092 8.58798 7.08348C8.57788 7.09358 8.56534 7.09358 8.5542 7.09985C8.05269 6.52973 8.03702 5.36651 7.29764 5.17357C7.81308 5.75936 7.65566 6.77073 8.07184 7.35374C8.05965 7.35931 8.04781 7.36314 8.03702 7.37602C7.45576 6.88775 7.2555 5.73672 6.4914 5.66603C7.0953 6.17136 7.0953 7.19458 7.60238 7.70514C7.59646 7.71071 7.58531 7.71594 7.57939 7.72882C6.91838 7.34573 6.54538 6.22883 5.77397 6.27027C6.45588 6.67775 6.60911 7.69992 7.19734 8.12097C7.19072 8.12654 7.18585 8.13316 7.17853 8.15162C6.46284 7.87614 5.91397 6.82855 5.16136 6.99467C5.89865 7.28861 6.21487 8.27491 6.86126 8.59671C6.85673 8.60367 6.85012 8.61447 6.85012 8.62109C6.09716 8.47551 5.39226 7.51638 4.66995 7.79116C5.44624 7.97261 5.90875 8.89796 6.60911 9.11354C6.60285 9.1205 6.60285 9.132 6.59762 9.14419C5.83352 9.1205 4.98026 8.27491 4.31159 8.66183C5.10982 8.72174 5.71581 9.57325 6.43742 9.66659C6.43185 9.67286 6.43185 9.68435 6.43185 9.69654C5.67541 9.7951 4.69364 9.08428 4.08835 9.57952C4.88762 9.50882 5.62108 10.2597 6.35557 10.2374V10.2597C5.62142 10.4895 4.53448 9.93789 4.0166 10.5251C4.79847 10.3318 5.64511 10.9534 6.3608 10.8134C6.36811 10.819 6.36811 10.8291 6.36811 10.8357C5.68063 11.1777 4.51219 10.7964 4.08835 11.465C4.83434 11.1426 5.77431 11.6427 6.46319 11.3787C6.46319 11.3829 6.46911 11.393 6.46911 11.393C5.84536 11.852 4.62189 11.6528 4.31193 12.3758C4.99802 11.9467 6.00974 12.288 6.64359 11.9255C6.65021 11.9296 6.65474 11.9296 6.65474 11.9349C6.11457 12.4865 4.87091 12.4809 4.6703 13.2503C5.28709 12.7094 6.33921 12.8985 6.91385 12.4231C6.91385 12.4301 6.91838 12.4346 6.91838 12.4395C6.47956 13.0747 5.24042 13.2632 5.16171 14.0502C5.68655 13.4216 6.76235 13.4457 7.2555 12.887C7.26177 12.887 7.26177 12.887 7.26177 12.8926C6.93092 13.5978 5.72799 13.9729 5.77431 14.7673C6.19781 14.0628 7.27292 13.9203 7.66228 13.2816C7.66681 13.2865 7.66681 13.2865 7.67308 13.2865C7.45576 14.0381 6.32144 14.6005 6.4914 15.3841C6.79648 14.6197 7.83641 14.3087 8.12443 13.6086C8.12443 13.616 8.13 13.616 8.13627 13.6208C8.03667 14.395 7.00161 15.1309 7.29729 15.8724C7.477 15.0738 8.45842 14.6005 8.63604 13.8685C8.63604 13.874 8.64231 13.874 8.64231 13.874C8.67121 14.6618 7.76084 15.5426 8.16588 16.229C8.22439 15.4068 9.11839 14.7952 9.16994 14.045C9.17725 14.045 9.18282 14.045 9.18282 14.0506C9.33536 14.8144 8.57788 15.8376 9.08356 16.4537C9.01078 15.6307 9.79926 14.8864 9.73413 14.1394H9.74597C10.018 14.8673 9.42208 15.9943 10.0232 16.525C9.82259 15.7313 10.4805 14.8673 10.3046 14.1394H10.3105C10.6992 14.8196 10.2879 16.0183 10.9635 16.4537C10.641 15.6965 11.1575 14.7437 10.8695 14.0506L10.8751 14.045C11.356 14.6618 11.145 15.9135 11.8798 16.229C11.4445 15.5381 11.7962 14.5089 11.411 13.874C11.411 13.874 11.4159 13.8685 11.4211 13.8685C11.9906 14.403 11.9735 15.6662 12.7484 15.8724C12.2082 15.2535 12.4029 14.1969 11.922 13.616L11.9275 13.6086C12.5732 14.0503 12.7554 15.3023 13.5546 15.3841C12.9274 14.861 12.9493 13.7748 12.3778 13.2865C12.3848 13.2865 12.3907 13.2816 12.3907 13.275C13.0946 13.609 13.4735 14.8144 14.27 14.7673C13.5707 14.3484 13.4237 13.2865 12.7891 12.8874C12.7954 12.8811 12.8027 12.8811 12.8027 12.8759C13.5435 13.1023 14.1059 14.2212 14.876 14.0506C14.1296 13.7514 13.8134 12.7275 13.1381 12.4304C13.1381 12.4235 13.1381 12.4176 13.1451 12.4176C13.9123 12.5283 14.6353 13.5393 15.3695 13.251C14.5838 13.0633 14.1199 12.117 13.4024 11.9171C13.4073 11.9171 13.4073 11.9056 13.4073 11.9C14.1829 11.9 15.0588 12.7763 15.7352 12.3761C14.9303 12.3232 14.3184 11.4654 13.5905 11.3707C13.5905 11.3644 13.5905 11.3599 13.5961 11.3543C14.3591 11.2359 15.3468 11.9582 15.9539 11.465C15.1525 11.5309 14.4194 10.7849 13.6908 10.8065V10.7765C14.426 10.5547 15.5116 11.107 16.0287 10.5254ZM13.2962 10.5254C13.2962 10.6369 13.2907 10.7546 13.2778 10.8667C13.2962 10.873 13.3199 10.873 13.3432 10.873C13.3203 10.8793 13.2962 10.8894 13.2718 10.896C13.2555 11.0607 13.2255 11.2185 13.1834 11.3707C13.2032 11.3787 13.2255 11.3787 13.2492 11.3829C13.2255 11.3891 13.1956 11.393 13.1715 11.4065C13.1322 11.5591 13.0796 11.7099 13.0075 11.852C13.0312 11.8649 13.049 11.875 13.074 11.8805H12.9978C12.9319 12.0296 12.8543 12.1752 12.7616 12.3058C12.7829 12.3166 12.8024 12.3295 12.8257 12.342C12.8027 12.342 12.7714 12.3357 12.748 12.3357C12.6547 12.4698 12.5617 12.6004 12.4496 12.7098C12.4666 12.7275 12.4858 12.7397 12.5018 12.7575C12.4795 12.7512 12.4548 12.7397 12.4297 12.7397C12.3221 12.8574 12.2027 12.963 12.0794 13.0629C12.0902 13.0859 12.1107 13.0984 12.1271 13.1158C12.1034 13.1023 12.0794 13.0922 12.055 13.0859C11.9272 13.1865 11.7959 13.275 11.6496 13.3565C11.6667 13.3743 11.681 13.392 11.6911 13.4164C11.6667 13.3972 11.6496 13.3816 11.6252 13.3743C11.4866 13.4512 11.3449 13.5292 11.192 13.579C11.1983 13.5982 11.2104 13.6212 11.2219 13.6341C11.1983 13.6212 11.1798 13.6041 11.1641 13.585C11.0098 13.6449 10.8559 13.6856 10.6988 13.7271C10.7051 13.7469 10.7117 13.7626 10.7166 13.7856C10.7051 13.7626 10.6866 13.7507 10.6682 13.7319C10.5104 13.7626 10.3513 13.7796 10.1879 13.7856C10.1879 13.8092 10.1932 13.8333 10.1994 13.8577C10.1879 13.8333 10.1705 13.8092 10.159 13.7918C10.1099 13.7918 10.0639 13.7974 10.0232 13.7974C9.90548 13.7974 9.78742 13.7859 9.67701 13.7751C9.6704 13.7974 9.6704 13.8159 9.67701 13.8399C9.66448 13.8162 9.65298 13.7978 9.64776 13.7751C9.48338 13.7514 9.32457 13.7274 9.16994 13.686C9.16402 13.6975 9.15879 13.7274 9.15879 13.7514C9.15426 13.7278 9.1466 13.6978 9.14207 13.6738C8.98292 13.6344 8.82898 13.5738 8.68932 13.5083C8.67713 13.5296 8.67121 13.5512 8.66495 13.5738C8.65937 13.5515 8.65937 13.5296 8.65937 13.4975C8.5131 13.422 8.37275 13.3506 8.23588 13.2635C8.22439 13.282 8.21254 13.2976 8.20732 13.3199C8.20732 13.2976 8.20732 13.275 8.21254 13.2506C8.07742 13.1573 7.94856 13.0629 7.82631 12.9515C7.81343 12.963 7.80159 12.9821 7.7894 13.0058C7.79671 12.9765 7.80159 12.9515 7.8089 12.933C7.69014 12.8174 7.58009 12.7038 7.4777 12.5774C7.46098 12.5945 7.44252 12.606 7.42685 12.629C7.43834 12.606 7.44914 12.5774 7.45645 12.5506C7.3572 12.4301 7.26665 12.288 7.18689 12.1515C7.16774 12.1644 7.15172 12.1814 7.13222 12.1957C7.14475 12.1752 7.16251 12.1452 7.17261 12.1278C7.09007 11.9892 7.02286 11.8422 6.96296 11.6953C6.9445 11.7008 6.92499 11.7061 6.90271 11.7238C6.91907 11.7008 6.93927 11.6838 6.95634 11.6667C6.89853 11.519 6.85081 11.3599 6.82191 11.1951C6.79718 11.2087 6.78116 11.2129 6.75713 11.2181C6.77419 11.2025 6.79683 11.1833 6.81529 11.1666C6.78673 11.0123 6.7627 10.8476 6.75713 10.6898C6.73101 10.6898 6.70837 10.6947 6.68573 10.6947C6.70837 10.6825 6.73101 10.6724 6.75086 10.6599V10.5251C6.75086 10.4088 6.75748 10.283 6.76862 10.1789C6.75086 10.1719 6.72579 10.1719 6.69827 10.1789C6.72579 10.1674 6.75086 10.1611 6.77454 10.1448C6.79196 9.9856 6.82226 9.81774 6.86231 9.66659C6.83793 9.66171 6.82226 9.66171 6.79718 9.66171C6.82191 9.65544 6.84454 9.64813 6.86683 9.64256C6.91455 9.4841 6.96679 9.33225 7.03226 9.18528C7.0145 9.1724 6.99674 9.1724 6.96679 9.1609C6.99674 9.1609 7.02251 9.15463 7.04271 9.15463C7.11515 9.00627 7.19177 8.86766 7.28023 8.73079C7.26212 8.72661 7.24296 8.71651 7.22137 8.70432C7.24923 8.70432 7.27326 8.71059 7.29834 8.71059C7.38471 8.57442 7.48501 8.45009 7.5975 8.32018C7.58009 8.31531 7.56198 8.29824 7.5369 8.28675C7.5672 8.29302 7.59193 8.29824 7.61352 8.30904C7.72636 8.18575 7.84303 8.07639 7.96736 7.97226C7.95483 7.95589 7.93811 7.93883 7.92104 7.92664C7.94298 7.9336 7.96736 7.94579 7.99 7.95589C8.11398 7.85524 8.24981 7.7626 8.39016 7.68598C8.37797 7.663 8.36752 7.64976 8.34802 7.62748C8.3731 7.64454 8.39539 7.65673 8.41384 7.66962C8.55454 7.58603 8.70151 7.52125 8.8544 7.46553C8.84709 7.44568 8.8356 7.42757 8.8241 7.39901C8.84013 7.42269 8.86032 7.43976 8.88366 7.44986C9.02958 7.39901 9.18944 7.35269 9.3479 7.31508C9.34094 7.29801 9.33606 7.27572 9.33049 7.25309C9.34094 7.27538 9.358 7.29314 9.37611 7.31508C9.53631 7.27572 9.69443 7.26458 9.85951 7.25309C9.85394 7.23393 9.85394 7.20955 9.84941 7.18761C9.85951 7.20955 9.87657 7.23393 9.88876 7.25309H10.0239C10.1406 7.25309 10.2597 7.25309 10.3704 7.26876V7.19806C10.3819 7.22662 10.3875 7.24438 10.3997 7.26876C10.5651 7.28791 10.7173 7.31508 10.8758 7.35792C10.882 7.34015 10.882 7.31508 10.8872 7.29314C10.8935 7.31508 10.8994 7.34468 10.905 7.36175C11.0579 7.41608 11.2111 7.47006 11.3567 7.53518C11.3689 7.51533 11.3759 7.49374 11.3804 7.46971C11.3804 7.49339 11.3804 7.52056 11.3867 7.54528C11.5343 7.61529 11.6736 7.69156 11.8105 7.77305C11.822 7.76226 11.8328 7.73892 11.8398 7.71942C11.8398 7.7438 11.8328 7.77305 11.8328 7.79778C11.9676 7.88624 12.0989 7.98271 12.2138 8.09102C12.2267 8.08162 12.2451 8.06177 12.2566 8.03808C12.2518 8.06177 12.2389 8.08649 12.2389 8.11575C12.3552 8.22197 12.4673 8.33829 12.568 8.4675C12.5858 8.44974 12.6028 8.43894 12.6202 8.41596C12.6087 8.44382 12.5972 8.4675 12.5924 8.48735C12.6916 8.61377 12.7787 8.74925 12.8623 8.89204C12.878 8.87288 12.8971 8.86766 12.9138 8.8499C12.9023 8.87288 12.8853 8.89761 12.8724 8.91398C12.9539 9.05538 13.0249 9.19643 13.08 9.35733C13.1019 9.35001 13.1193 9.33747 13.1385 9.32076C13.1256 9.34374 13.1019 9.36151 13.09 9.37857C13.1451 9.53111 13.1886 9.684 13.2255 9.84455C13.2447 9.84455 13.2663 9.83167 13.291 9.81739C13.2666 9.84455 13.2496 9.86162 13.2304 9.87102C13.2604 10.0316 13.2781 10.197 13.291 10.3593C13.3133 10.3537 13.3311 10.3464 13.3544 10.3415C13.3314 10.3593 13.3136 10.3736 13.291 10.3844C13.2962 10.4317 13.2962 10.4788 13.2962 10.5254Z" fill="#F6EC32"/>
<path id="Vector_4" d="M9.70641 8.64099C9.25087 8.44701 8.75424 8.33835 8.23323 8.31641C8.19492 8.35576 8.15313 8.39268 8.11621 8.43273C8.60971 8.45258 9.08231 8.56751 9.5159 8.74443C9.57755 8.70856 9.63884 8.67164 9.70641 8.64099Z" fill="#F6EC32"/>
<path id="Vector_5" d="M11.5868 8.13646C11.1494 7.80944 10.6099 7.62207 10.0227 7.62207C9.43692 7.62207 8.8971 7.80909 8.4541 8.13646C9.0082 8.16224 9.53722 8.28134 10.0227 8.491C10.5051 8.28134 11.0358 8.16224 11.5868 8.13646Z" fill="#F6EC32"/>
<path id="Vector_6" d="M9.26042 8.90671C8.85956 8.73537 8.42248 8.62984 7.9659 8.60059C7.93491 8.63715 7.90844 8.67198 7.87744 8.7089C8.31313 8.74512 8.72722 8.85238 9.10648 9.01712C9.15768 8.98299 9.20853 8.94398 9.26042 8.90671Z" fill="#F6EC32"/>
<path id="Vector_7" d="M10.3959 9.63574C10.3437 9.67579 10.29 9.72072 10.2402 9.76286C10.9897 10.4709 11.4644 11.468 11.4881 12.5831C11.5717 12.5323 11.6507 12.471 11.727 12.4083C11.6584 11.3043 11.1604 10.326 10.3959 9.63574Z" fill="#F6EC32"/>
<path id="Vector_8" d="M10.5285 8.74443C10.9638 8.56751 11.4364 8.45258 11.9289 8.43273C11.8888 8.39268 11.8498 8.35576 11.8077 8.31641C11.288 8.33835 10.7935 8.44701 10.3394 8.64099C10.4038 8.67164 10.4658 8.70856 10.5285 8.74443Z" fill="#F6EC32"/>
<path id="Vector_9" d="M10.8361 9.33594C10.7748 9.37146 10.7128 9.41012 10.6519 9.45365C11.402 10.106 11.923 11.0195 12.0679 12.0594C12.1456 11.9702 12.2135 11.8745 12.2783 11.7703C12.0777 10.8053 11.5605 9.95307 10.8361 9.33594Z" fill="#F6EC32"/>
<path id="Vector_10" d="M8.89955 9.18119C8.55024 9.02482 8.16853 8.91302 7.7722 8.86914C7.50613 9.28741 7.35254 9.79066 7.35254 10.3263C7.35254 10.6509 7.40617 10.9577 7.51135 11.2461C7.77673 10.4294 8.26466 9.72066 8.89955 9.18119Z" fill="#F6EC32"/>
<path id="Vector_11" d="M10.935 9.01614C11.3174 8.85141 11.7308 8.74414 12.1662 8.70792C12.1383 8.67135 12.1098 8.63653 12.0798 8.59961C11.6201 8.62886 11.1868 8.73439 10.7832 8.90574C10.8341 8.94335 10.8852 8.98236 10.935 9.01614Z" fill="#F6EC32"/>
<path id="Vector_12" d="M8.91406 12.6668C8.91406 12.7055 8.91615 12.7459 8.91615 12.7853C9.25571 12.9382 9.62767 13.0249 10.023 13.0249C10.4175 13.0249 10.7898 12.9385 11.1263 12.7853C11.1277 12.7459 11.1277 12.7055 11.1277 12.6668C11.1277 11.6126 10.7052 10.658 10.023 9.96289C9.33651 10.658 8.91406 11.6123 8.91406 12.6668Z" fill="#F6EC32"/>
<path id="Vector_13" d="M10.0225 8.78809C9.95804 8.82431 9.89291 8.8553 9.83301 8.89292C9.8943 8.92844 9.95804 8.96222 10.0225 8.99565C10.0859 8.96222 10.1492 8.92844 10.2147 8.89292C10.1499 8.8553 10.0872 8.82431 10.0225 8.78809Z" fill="#F6EC32"/>
<path id="Vector_14" d="M11.144 9.18056C11.7821 9.72003 12.2696 10.4288 12.535 11.2451C12.6364 10.9567 12.6942 10.6499 12.6942 10.3253C12.6942 9.79003 12.5392 9.28678 12.2724 8.86816C11.874 8.91274 11.4958 9.02419 11.144 9.18056Z" fill="#F6EC32"/>
<path id="Vector_15" d="M9.65 9.63574C8.8852 10.326 8.38578 11.3043 8.31787 12.4083C8.3931 12.471 8.47633 12.5319 8.55644 12.5831C8.57838 11.4683 9.0562 10.4712 9.80568 9.76286C9.75378 9.72072 9.70294 9.67579 9.65 9.63574Z" fill="#F6EC32"/>
<path id="Vector_16" d="M9.86523 9.45114C9.91887 9.49119 9.96797 9.53124 10.0227 9.57234C10.0735 9.53159 10.1257 9.49154 10.1797 9.45114C10.1289 9.40761 10.0756 9.36964 10.0227 9.33203C9.96658 9.36964 9.91608 9.40761 9.86523 9.45114Z" fill="#F6EC32"/>
<path id="Vector_17" d="M9.39288 9.45365C9.32949 9.41012 9.26785 9.37146 9.20725 9.33594C8.48424 9.95272 7.96741 10.8053 7.76611 11.7703C7.83089 11.8745 7.90229 11.9702 7.97264 12.0594C8.121 11.0195 8.64201 10.106 9.39288 9.45365Z" fill="#F6EC32"/>
<path id="Vector_18" d="M10.2812 9.16502C10.3338 9.19915 10.385 9.2399 10.4376 9.27925C10.4989 9.2399 10.5647 9.19915 10.6281 9.1692C10.5759 9.12915 10.5233 9.09014 10.4711 9.05566C10.4084 9.08631 10.3439 9.12288 10.2812 9.16502Z" fill="#F6EC32"/>
</g>
</g>
</g>
</g>
<defs>
<clipPath id="clip0_8446_29474">
<rect width="20" height="20" fill="white" transform="translate(0 0.5)"/>
</clipPath>
</defs>
</svg>
